# Blender v2.63 (sub 0) OBJ File: 'one.blend'
# www.blender.org
mtllib icefaces.mtl
o Mesh_Plane
v 0.758481 0.100732 0.747016
v 0.782794 1.172212 0.746997
v 0.641942 0.207574 0.746664
v 1.829043 0.367982 0.746706
v 1.791363 0.985498 0.745779
v 1.708266 0.326005 0.745841
v 0.618580 1.056046 0.743914
v 0.337220 0.384199 0.745901
v 0.397460 0.185679 0.747431
v 1.524908 1.005711 0.746150
v 1.465624 1.136129 0.744878
v 1.325817 0.050650 0.745714
v 1.661399 0.128909 0.746072
v 1.197236 1.177565 0.746007
v 0.166726 0.970138 0.745535
v 0.189471 0.433873 0.746771
v 1.547477 1.085014 0.254084
v 1.473322 1.178384 0.249665
v 1.763691 1.069427 0.255010
v 0.154111 0.596506 0.747004
v 1.362829 0.010391 0.249225
v 1.204298 -0.007699 0.250491
v 1.012999 0.054862 0.743426
v 0.874114 0.019929 0.250148
v 0.744382 1.213407 0.249161
v 1.828736 0.305669 0.250950
v 1.325257 1.212329 0.249486
v 1.699023 0.097520 0.249878
v 0.705052 0.070891 0.250296
v 0.635702 0.147534 0.248010
v 0.572946 1.049279 0.248693
v 1.844091 0.972965 0.249292
v 0.500698 0.149299 0.253121
v 0.342827 0.154035 0.249312
v 0.302341 0.329318 0.251061
v 0.134661 0.429538 0.248589
v 1.872082 0.853760 0.251702
v 1.842366 0.775184 0.743309
v 0.121527 0.990545 0.249279
vt 0.260881 0.158478
vt 0.466281 0.757731
vt 0.211093 0.245181
vt 0.901752 0.099310
vt 1.000000 0.446529
vt 0.827170 0.099475
vt 0.353357 0.722971
vt 0.213033 0.843347
vt 0.000000 0.843347
vt 0.091739 0.757731
vt 0.844490 0.615234
vt 0.857205 0.509003
vt 0.563563 0.021582
vt 0.763389 0.000000
vt 0.700710 0.686596
vt 0.085462 0.757730
vt 0.000000 0.454290
vt 0.633794 0.878763
vt 0.634192 0.830528
vt 0.638880 0.809711
vt 0.858165 0.752231
vt 0.869227 0.812296
vt 0.864950 0.847092
vt 0.845838 0.887318
vt 0.836400 0.902457
vt 0.812464 0.879133
vt 0.820046 0.856866
vt 0.879192 0.881092
vt 0.804995 0.752143
vt 0.778007 0.728690
vt 0.784816 0.754744
vt 0.736625 0.740290
vt 0.745651 0.767212
vt 0.710486 0.897176
vt 0.736361 0.917519
vt 0.688707 0.882965
vt 0.873544 0.773783
vt 0.838029 0.750870
vt 0.827508 0.726111
vt 0.815027 0.909668
vt 0.851171 0.751965
vt 0.726692 0.777323
vt 0.704914 0.753863
vt 0.719349 0.787673
vt 0.714715 0.897759
vt 0.890128 0.865342
vt 0.704314 0.790927
vt 0.662767 0.774596
vt 0.687778 0.795329
vt 0.770462 0.890904
vt 0.683429 0.815482
vt 0.666070 0.830226
vt 0.891819 0.847181
vt 0.663587 0.896502
vt 0.691074 0.770274
vt 0.655572 0.800072
vn -0.002943 0.000084 0.999996
vn -0.007524 0.001042 0.999971
vn -0.020660 0.002671 0.999783
vn 0.002382 0.008430 0.999962
vn -0.006759 0.006681 0.999955
vn 0.001337 -0.000735 0.999999
vn -0.001419 0.001509 0.999998
vn 0.004094 -0.000731 0.999991
vn 0.002956 0.003322 0.999990
vn 0.002389 -0.000037 0.999997
vn 0.002214 -0.000918 0.999997
vn -0.000440 0.000149 1.000000
vn 0.001419 0.002365 0.999996
vn 0.021351 0.003210 0.999767
vn 0.072787 0.005938 0.997330
vn 0.779903 0.622491 0.065239
vn 0.070266 0.984309 0.161858
vn 0.113627 -0.989555 0.088711
vn -0.013971 -0.997120 0.074548
vn -0.575309 0.810309 0.111441
vn 0.944698 -0.224357 0.239184
vn 0.222527 0.971097 0.086320
vn 0.844438 -0.526733 0.097350
vn -0.737979 -0.664198 0.119282
vn -0.690619 0.721216 0.053785
vn 0.904643 0.412275 0.107936
vn 0.768418 0.636583 0.065538
vn -0.031529 -0.997267 0.066811
vn -0.012671 0.996433 0.083431
vn -0.512681 -0.856201 0.063855
vn -0.287416 -0.953735 0.088212
vn 0.997957 -0.032191 0.055178
vn -0.082742 -0.987163 0.136614
vn -0.128778 0.990285 0.052452
vn 0.152132 0.982441 0.108011
vn 0.325259 -0.938267 0.117732
vn -0.131458 -0.050884 -0.990015
vn 0.968486 0.229376 0.097065
vn -0.967004 -0.224554 0.120325
vn 0.001812 0.997524 0.070309
vn 0.074844 0.983618 0.163994
vn 0.226328 -0.970876 0.078578
vn 0.967617 0.233530 0.095816
vn 0.249522 -0.963526 0.096731
vn -0.672764 -0.733506 0.096736
vn -0.952416 -0.288243 0.099099
vn -0.174502 -0.977518 0.118358
vn -0.995176 0.033962 0.092037
vn -0.998628 -0.023437 0.046821
vn -0.002776 -0.045581 -0.998957
vn -0.022579 -0.964437 -0.263347
vn -0.008450 -0.992781 0.119641
vn 0.089110 -0.991800 0.091605
vn -0.017466 -0.034450 -0.999254
vn -0.315446 -0.940469 0.126538
vn -0.008970 -0.127393 0.991812
vn -0.186763 0.982398 0.003786
vn -0.971347 -0.211348 0.108707
vn 0.996843 -0.078849 0.009293
usemtl Material.004_logo
s off
f 1/1/1 2/2/1 3/3/1
f 4/4/2 5/5/2 6/6/2
f 2/2/3 7/7/3 3/3/3
f 3/8/4 8/9/4 9/10/4
f 11/11/5 1/1/5 10/12/5
f 5/5/6 10/12/6 12/13/6
f 13/14/7 6/6/7 12/13/7
f 14/15/8 1/1/8 11/11/8
f 3/3/9 7/7/9 15/16/9
f 2/2/10 1/1/10 14/15/10
f 10/12/11 1/1/11 12/13/11
f 6/6/12 5/5/12 12/13/12
f 3/3/13 15/16/13 16/17/13
f 15/18/14 20/19/14 16/20/14
f 4/21/15 38/22/15 5/23/15
usemtl Material.004
f 17/24/16 18/25/16 11/26/16
f 17/24/17 10/27/17 19/28/17
f 21/29/18 12/30/18 22/31/18
f 12/30/19 23/32/19 24/33/19
f 2/34/20 25/35/20 7/36/20
f 26/37/21 6/38/21 13/39/21
f 18/25/22 27/40/22 11/26/22
f 28/41/23 26/37/23 13/39/23
f 29/42/24 1/43/24 30/44/24
f 7/36/25 25/35/25 31/45/25
f 11/26/26 10/27/26 17/24/26
f 32/46/27 19/28/27 5/23/27
f 33/47/28 9/48/28 34/49/28
f 14/50/29 25/35/29 2/34/29
f 35/51/30 16/20/30 36/52/30
f 24/33/31 1/43/31 29/42/31
f 37/53/32 38/22/32 4/21/32
f 22/31/33 12/30/33 24/33/33
f 31/45/34 39/54/34 15/18/34
f 11/26/35 27/40/35 14/50/35
f 4/21/36 6/38/36 26/37/36
f 37/53/37 19/28/37 32/46/37
f 37/53/38 32/46/38 5/23/38
f 9/48/39 35/51/39 34/49/39
f 27/40/40 25/35/40 14/50/40
f 19/28/41 10/27/41 5/23/41
f 13/39/42 12/30/42 28/41/42
f 37/53/43 5/23/43 38/22/43
f 28/41/44 12/30/44 21/29/44
f 1/43/45 3/55/45 30/44/45
f 9/48/46 8/56/46 35/51/46
f 23/32/47 1/43/47 24/33/47
f 20/19/48 15/18/48 39/54/48
f 20/19/49 39/54/49 36/52/49
f 22/31/50 24/33/50 21/29/50
f 30/44/51 33/47/51 34/49/51
f 30/44/52 3/55/52 33/47/52
f 3/55/53 9/48/53 33/47/53
f 3/55/54 16/20/54 8/56/54
f 8/56/55 16/20/55 35/51/55
f 12/30/56 1/43/56 23/32/56
f 7/36/57 31/45/57 15/18/57
f 16/20/58 20/19/58 36/52/58
f 26/37/59 37/53/59 4/21/59
